<svg viewBox="6 28 652 384" xmlns="http://www.w3.org/2000/svg" role="img">
  <title>Osman Öz — OZ Logo</title>
  <ellipse cx="332" cy="220" rx="312" ry="180" fill="none" stroke="#181818" stroke-width="11"/>
  <ellipse cx="332" cy="220" rx="307" ry="175" fill="#ffffff"/>
  <ellipse cx="332" cy="220" rx="300" ry="168" fill="#181818"/>
  <path d="M 351.150 146.000 L 351.150 148.000 L 441.150 148.000 L 441.150 146.000 L 441.150 144.000 L 351.150 144.000 L 351.150 146.000 Z M 439.426 146.845 L 437.614 146.000 L 369.150 292.822 L 370.962 293.667 L 372.775 294.512 L 441.239 147.690 L 439.426 146.845 Z M 483.150 292.822 L 483.150 290.822 L 393.150 290.822 L 393.150 292.822 L 393.150 294.822 L 483.150 294.822 L 483.150 292.822 Z M 394.873 291.977 L 396.686 292.822 L 465.150 146.000 L 463.337 145.155 L 461.524 144.310 L 393.060 291.131 L 394.873 291.977 Z M 244.075 159.130 L 241.575 159.130 L 241.575 137.130 L 244.075 137.130 L 246.575 137.130 L 246.575 159.130 L 244.075 159.130 Z M 257.075 300.130 L 254.575 300.130 L 254.575 278.130 L 257.075 278.130 L 259.575 278.130 L 259.575 300.130 L 257.075 300.130 Z M 308.575 211.630 L 308.575 209.130 L 330.575 209.130 L 330.575 211.630 L 330.575 214.130 L 308.575 214.130 L 308.575 211.630 Z M 173.075 214.130 L 175.571 214.001 C 174.729 197.754 182.705 179.486 195.969 165.224 C 209.213 150.982 227.406 141.085 246.569 141.130 L 246.575 138.630 L 246.581 136.130 C 225.686 136.080 206.242 146.835 192.308 161.819 C 178.393 176.781 169.648 196.311 170.578 214.260 L 173.075 214.130 Z M 191.075 214.130 L 193.575 214.130 C 193.575 200.920 200.090 187.263 210.124 176.866 C 220.159 166.468 233.422 159.630 246.575 159.630 L 246.575 157.130 L 246.575 154.630 C 231.728 154.630 217.240 162.292 206.526 173.394 C 195.810 184.497 188.575 199.341 188.575 214.130 L 191.075 214.130 Z M 310.075 214.130 L 312.575 214.130 C 312.575 199.341 305.340 184.497 294.624 173.394 C 283.909 162.292 269.422 154.630 254.575 154.630 L 254.575 157.130 L 254.575 159.630 C 267.728 159.630 280.990 166.468 291.026 176.866 C 301.060 187.263 307.575 200.920 307.575 214.130 L 310.075 214.130 Z M 310.075 222.630 L 307.575 222.630 C 307.575 235.841 301.060 249.497 291.026 259.894 C 280.990 270.292 267.728 277.130 254.575 277.130 L 254.575 279.630 L 254.575 282.130 C 269.422 282.130 283.909 274.468 294.624 263.366 C 305.340 252.263 312.575 237.420 312.575 222.630 L 310.075 222.630 Z M 191.075 222.630 L 188.575 222.630 C 188.575 237.420 195.810 252.263 206.526 263.366 C 217.241 274.468 231.728 282.130 246.575 282.130 L 246.575 279.630 L 246.575 277.130 C 233.422 277.130 220.160 270.292 210.124 259.894 C 200.090 249.497 193.575 235.841 193.575 222.630 L 191.075 222.630 Z M 328.075 214.261 L 325.578 214.131 C 326.420 197.885 318.445 179.617 305.181 165.354 C 291.936 151.113 273.744 141.215 254.581 141.261 L 254.575 138.761 L 254.569 136.261 C 275.464 136.211 294.907 146.965 308.842 161.949 C 322.757 176.911 331.502 196.441 330.572 214.390 L 328.075 214.261 Z M 328.075 223.030 L 325.578 223.160 C 326.420 239.406 318.445 257.674 305.181 271.937 C 291.936 286.178 273.744 296.076 254.581 296.030 L 254.575 298.530 L 254.569 301.030 C 275.464 301.080 294.907 290.325 308.842 275.342 C 322.757 260.379 331.502 240.850 330.572 222.901 L 328.075 223.030 Z M 173.650 223.030 L 176.146 223.160 C 175.304 239.406 183.280 257.674 196.544 271.937 C 209.788 286.178 227.981 296.076 247.144 296.030 L 247.150 298.530 L 247.156 301.030 C 226.261 301.080 206.817 290.325 192.883 275.342 C 178.968 260.379 170.222 240.850 171.153 222.901 L 173.650 223.030 Z M 171.575 224.630 L 171.575 227.130 L 193.575 227.130 L 193.575 224.630 L 193.575 222.130 L 171.575 222.130 L 171.575 224.630 Z"
        fill="#ffffff" stroke="#ffffff" stroke-width="0.75" stroke-linejoin="round" paint-order="stroke fill"/>
  <rect x="241.575" y="137.130" width="5" height="22" fill="#ffffff"/>
  <rect x="254.575" y="278.130" width="5" height="22" fill="#ffffff"/>
  <rect x="308.575" y="209.130" width="22" height="5" fill="#ffffff"/>
  <rect x="171.575" y="222.130" width="22" height="5" fill="#ffffff"/>
</svg>
